<svg xmlns="http://www.w3.org/2000/svg" viewBox="0 0 1200 675" width="1200" height="675" role="img" aria-label="Belleza Natural - portada">
  <defs>
    <linearGradient id="g1" x1="0" x2="1" y1="0" y2="1">
      <stop offset="0%" stop-color="#3b0a2a"/>
      <stop offset="60%" stop-color="#5e1142"/>
      <stop offset="100%" stop-color="#7a1b54"/>
    </linearGradient>
    <radialGradient id="glow" cx="50%" cy="45%" r="60%">
      <stop offset="0%" stop-color="#ff86c9" stop-opacity="0.35"/>
      <stop offset="70%" stop-color="#ff86c9" stop-opacity="0.08"/>
      <stop offset="100%" stop-color="#ff86c9" stop-opacity="0"/>
    </radialGradient>
  </defs>
  <rect width="1200" height="675" fill="url(#g1)"/>
  <rect x="0" y="0" width="1200" height="675" fill="url(#glow)"/>
  <!-- Motivo de pétalos -->
  <g fill="#ffd3ea" fill-opacity="0.18">
    <circle cx="140" cy="140" r="80"/>
    <circle cx="240" cy="120" r="40"/>
    <circle cx="1060" cy="560" r="70"/>
    <circle cx="980" cy="520" r="30"/>
  </g>
  <!-- Flor central -->
  <g transform="translate(600 338)">
    <g fill="#ffb0da">
      <path d="M0 -128 C 35 -110 66 -84 78 -50 C 90 -16 82 20 58 46 C 34 72 0 80 -34 74 C -68 68 -98 48 -115 22 C -132 -4 -137 -36 -128 -64 C -120 -92 -98 -116 -70 -126 C -42 -136 -7 -133 0 -128 Z" opacity="0.38"/>
      <path d="M0 -105 C 25 -94 47 -72 55 -46 C 62 -21 56 5 39 24 C 22 43 -2 53 -28 49 C -53 46 -77 31 -90 12 C -103 -7 -106 -30 -100 -50 C -94 -71 -78 -89 -57 -97 C -36 -104 -11 -103 0 -105 Z"/>
    </g>
    <!-- Pistilo -->
    <circle cx="0" cy="0" r="28" fill="#fff1fa"/>
    <circle cx="0" cy="0" r="16" fill="#ff86c9"/>
  </g>
  <!-- Bordes suaves -->
  <rect x="16" y="16" width="1168" height="643" rx="24" ry="24" fill="none" stroke="#ffffff" stroke-opacity="0.08"/>
</svg>